HIERARCHY
ROOT hip
{
  OFFSET 0 0 0
  CHANNELS 6 Xposition Yposition Zposition Zrotation Yrotation Xrotation
  JOINT abdomen
  {
    OFFSET 0 20.6881 -0.73152
    CHANNELS 3 Zrotation Xrotation Yrotation
    JOINT chest
    {
      OFFSET 0 11.7043 -0.48768
      CHANNELS 3 Zrotation Xrotation Yrotation
      JOINT neck
      {
        OFFSET 0 22.1894 -2.19456
        CHANNELS 3 Zrotation Xrotation Yrotation
        JOINT head
        {
          OFFSET -0.24384 7.07133 1.2192
          CHANNELS 3 Zrotation Xrotation Yrotation
          JOINT leftEye
          {
            OFFSET 4.14528 8.04674 8.04672
            CHANNELS 3 Zrotation Xrotation Yrotation
            End Site
            {
              OFFSET 1 0 0
            }
          }
          JOINT rightEye
          {
            OFFSET -3.6576 8.04674 8.04672
            CHANNELS 3 Zrotation Xrotation Yrotation
            End Site
            {
              OFFSET 1 0 0
            }
          }
        }
      }
      JOINT rCollar
      {
        OFFSET -2.68224 19.2634 -4.8768
        CHANNELS 3 Zrotation Xrotation Yrotation
        JOINT rShldr
        {
          OFFSET -8.77824 -1.95073 1.46304
          CHANNELS 3 Zrotation Xrotation Yrotation
          JOINT rForeArm
          {
            OFFSET -28.1742 -1.7115 0.48768
            CHANNELS 3 Zrotation Xrotation Yrotation
            JOINT rHand
            {
              OFFSET -22.5879 0.773209 7.07136
              CHANNELS 3 Zrotation Xrotation Yrotation
              JOINT rThumb1
              {
                OFFSET -1.2192 -0.487915 3.41376
                CHANNELS 3 Zrotation Xrotation Yrotation
                JOINT rThumb2
                {
                  OFFSET -3.37035 -0.52449 3.41376
                  CHANNELS 3 Zrotation Xrotation Yrotation
                  End Site
                  {
                    OFFSET -1.78271 -1.18214 1.43049
                  }
                }
              }
              JOINT rIndex1
              {
                OFFSET -7.75947 0.938293 5.60832
                CHANNELS 3 Zrotation Xrotation Yrotation
                JOINT rIndex2
                {
                  OFFSET -2.54057 -0.884171 1.56538
                  CHANNELS 3 Zrotation Xrotation Yrotation
                  End Site
                  {
                    OFFSET -1.62519 -0.234802 1.16502
                  }
                }
              }
              JOINT rMid1
              {
                OFFSET -8.24714 1.18213 3.41376
                CHANNELS 3 Zrotation Xrotation Yrotation
                JOINT rMid2
                {
                  OFFSET -3.10165 -0.590103 1.0647
                  CHANNELS 3 Zrotation Xrotation Yrotation
                  End Site
                  {
                    OFFSET -2.48547 -0.328903 0.83742
                  }
                }
              }
              JOINT rRing1
              {
                OFFSET -8.82822 0.546677 1.51678
                CHANNELS 3 Zrotation Xrotation Yrotation
                JOINT rRing2
                {
                  OFFSET -2.60934 -0.819778 -0.0198488
                  CHANNELS 3 Zrotation Xrotation Yrotation
                  End Site
                  {
                    OFFSET -2.33842 -0.294052 0.168128
                  }
                }
              }
              JOINT rPinky1
              {
                OFFSET -8.27202 -0.0477905 -0.4584
                CHANNELS 3 Zrotation Xrotation Yrotation
                JOINT rPinky2
                {
                  OFFSET -1.82734 -0.647385 -0.700984
                  CHANNELS 3 Zrotation Xrotation Yrotation
                  End Site
                  {
                    OFFSET -1.69225 -0.51767 -0.607171
                  }
                }
              }
            }
          }
        }
      }
      JOINT lCollar
      {
        OFFSET 2.68224 19.2634 -4.8768
        CHANNELS 3 Zrotation Xrotation Yrotation
        JOINT lShldr
        {
          OFFSET 8.77824 -1.95073 1.46304
          CHANNELS 3 Zrotation Xrotation Yrotation
          JOINT lForeArm
          {
            OFFSET 28.1742 -1.7115 0.48768
            CHANNELS 3 Zrotation Xrotation Yrotation
            JOINT lHand
            {
              OFFSET 22.5879 0.773209 7.07136
              CHANNELS 3 Zrotation Xrotation Yrotation
              JOINT lThumb1
              {
                OFFSET 1.2192 -0.487915 3.41376
                CHANNELS 3 Zrotation Xrotation Yrotation
                JOINT lThumb2
                {
                  OFFSET 3.37035 -0.52449 3.41376
                  CHANNELS 3 Zrotation Xrotation Yrotation
                  End Site
                  {
                    OFFSET 1.78271 -1.18214 1.43049
                  }
                }
              }
              JOINT lIndex1
              {
                OFFSET 7.75947 0.938293 5.60832
                CHANNELS 3 Zrotation Xrotation Yrotation
                JOINT lIndex2
                {
                  OFFSET 2.54057 -0.884171 1.56538
                  CHANNELS 3 Zrotation Xrotation Yrotation
                  End Site
                  {
                    OFFSET 1.62519 -0.234802 1.16502
                  }
                }
              }
              JOINT lMid1
              {
                OFFSET 8.24714 1.18213 3.41376
                CHANNELS 3 Zrotation Xrotation Yrotation
                JOINT lMid2
                {
                  OFFSET 3.10165 -0.590103 1.0647
                  CHANNELS 3 Zrotation Xrotation Yrotation
                  End Site
                  {
                    OFFSET 2.48547 -0.328903 0.83742
                  }
                }
              }
              JOINT lRing1
              {
                OFFSET 8.82822 0.546677 1.51678
                CHANNELS 3 Zrotation Xrotation Yrotation
                JOINT lRing2
                {
                  OFFSET 2.60934 -0.819778 -0.0198488
                  CHANNELS 3 Zrotation Xrotation Yrotation
                  End Site
                  {
                    OFFSET 2.33842 -0.294052 0.168128
                  }
                }
              }
              JOINT lPinky1
              {
                OFFSET 8.27202 -0.0477905 -0.4584
                CHANNELS 3 Zrotation Xrotation Yrotation
                JOINT lPinky2
                {
                  OFFSET 1.82734 -0.647385 -0.700984
                  CHANNELS 3 Zrotation Xrotation Yrotation
                  End Site
                  {
                    OFFSET 1.69225 -0.51767 -0.607171
                  }
                }
              }
            }
          }
        }
      }
    }
  }
  JOINT rButtock
  {
    OFFSET -8.77824 4.35084 1.2192
    CHANNELS 3 Zrotation Xrotation Yrotation
    JOINT rThigh
    {
      OFFSET 0 -1.70687 -2.19456
      CHANNELS 3 Zrotation Xrotation Yrotation
      JOINT rShin
      {
        OFFSET 0 -36.8199 0.73152
        CHANNELS 3 Zrotation Xrotation Yrotation
        JOINT rFoot
        {
          OFFSET 0.73152 -45.1104 -5.12064
          CHANNELS 3 Zrotation Xrotation Yrotation
          End Site
          {
            OFFSET -1.1221 -3.69964 12.103
          }
        }
      }
    }
  }
  JOINT lButtock
  {
    OFFSET 8.77824 4.35084 1.2192
    CHANNELS 3 Zrotation Xrotation Yrotation
    JOINT lThigh
    {
      OFFSET 0 -1.70687 -2.19456
      CHANNELS 3 Zrotation Xrotation Yrotation
      JOINT lShin
      {
        OFFSET 0 -36.8199 0.73152
        CHANNELS 3 Zrotation Xrotation Yrotation
        JOINT lFoot
        {
          OFFSET -0.73152 -45.1104 -5.12064
          CHANNELS 3 Zrotation Xrotation Yrotation
          End Site
          {
            OFFSET 1.1221 -3.69964 12.103
          }
        }
      }
    }
  }
}
MOTION
Frames:	7
Frame Time:	0.00833333
4.59522 84.3996 -72.09 0.0 0.0 0.0 -0.991225 -0.00434166 -0.0274291 -0.273429 -0.00447547 -0.0473707 2.57467e-14 0.0 -1.11816e-16 7.70384e-14 3.18055e-15 -3.23025e-16 -0.0 0.0 0.0 -0.0 0.0 0.0 1.27215e-14 3.26131e-17 4.96962e-17 2.71978e-13 6.83322e-16 5.96354e-16 4.63983e-12 -1.36625e-12 -7.31528e-14 5.30847e-11 1.49998e-12 -1.36764e-13 1.25219e-10 2.87579e-13 -4.58e-13 2.1624e-10 4.99347e-13 -7.9991e-13 1.25224e-10 2.87443e-13 -4.58e-13 7.73091 5.47488 0.417314 1.25218e-10 2.87641e-13 -4.58e-13 2.90554 0.965183 0.102902 1.25226e-10 2.8784e-13 -4.57205e-13 10.2786 0.731801 0.0259123 1.25215e-10 2.8784e-13 -4.51639e-13 2.22167 -0.733487 -0.20892 1.27238e-14 2.98953e-17 -1.49089e-16 2.67286e-13 6.52262e-16 -1.59028e-15 4.63715e-12 1.41018e-12 -6.67917e-14 5.30763e-11 -1.27021e-12 -1.46306e-13 1.252e-10 3.00259e-13 -4.64361e-13 2.16217e-10 5.21611e-13 -7.95934e-13 1.25192e-10 3.02153e-13 -4.54819e-13 -7.73091 5.47488 -0.417314 1.25199e-10 3.00861e-13 -4.64361e-13 -2.90554 0.965183 -0.102902 1.25187e-10 3.01258e-13 -4.61976e-13 -10.2786 0.731801 -0.0259123 1.25208e-10 3.01755e-13 -4.70722e-13 -2.22167 -0.733487 0.20892 -2.03217e-16 0.0 -3.88251e-19 -0.253788 -1.9193 -0.0128549 -0.00928923 -2.07855 -0.0767336 -0.497365 3.99655 0.138109 2.03217e-16 0.0 3.88251e-19 -1.25489 -5.46677 0.109736 -9.49802e-05 4.34722 -0.0243731 0.511612 1.11837 -0.0811209
4.06143 83.0364 -73.6398 -1.4749 -1.9999 6.5306 -0.459339 0.0355162 -0.551753 0.148082 1.38656 -0.213099 -0.518105 0.524073 0.28471 -0.197376 3.00873 0.683686 -0.0 0.0 0.0 -0.0 0.0 0.0 9.57699e-15 1.64222e-14 -1.00833e-14 21.4806 1.44202 2.35089 -3.63557 -1.55061 5.78355 0.16492 9.02938 1.21283 3.05288e-10 9.19465e-12 -2.83553e-10 5.19383e-10 2.36178e-11 -4.95207e-10 3.05295e-10 9.1945e-12 -2.83554e-10 7.73091 5.47488 0.417314 3.05289e-10 9.19588e-12 -2.83552e-10 2.90554 0.965183 0.102902 3.05295e-10 9.19689e-12 -2.83553e-10 10.2786 0.731801 0.0259123 3.05286e-10 9.19715e-12 -2.83549e-10 2.22167 -0.733487 -0.20892 9.53492e-15 1.64222e-14 -1.02526e-14 -21.4963 5.85167 -3.44624 2.46405 -0.908791 -4.04719 -0.000552081 0.527282 -0.0740937 1.03653e-10 2.49099e-10 4.716e-10 1.80509e-10 4.31358e-10 8.15468e-10 1.03646e-10 2.49101e-10 4.7161e-10 -7.73091 5.47488 -0.417314 1.03652e-10 2.49099e-10 4.716e-10 -2.90554 0.965183 -0.102902 1.03642e-10 2.491e-10 4.71603e-10 -10.2786 0.731801 -0.0259123 1.03659e-10 2.491e-10 4.71594e-10 -2.22167 -0.733487 0.20892 -2.03217e-16 0.0 -3.88251e-19 -0.887357 -5.85965 -0.625687 -0.0108432 3.79793 0.0199105 -0.535826 0.548019 -0.742424 2.03217e-16 0.0 3.88251e-19 -0.101664 -8.5001 2.47243 -0.0129615 8.70601 -0.0989846 0.586274 -1.45456 1.24543
4.06339 83.0371 -73.6046 -1.4672 -1.9928 6.5298 0.102307 0.0796014 -1.10418 0.602885 2.85656 -0.388126 -1.07104 1.07801 0.585816 -0.486302 6.18564 1.41285 -0.0 0.0 0.0 -0.0 0.0 0.0 6.94111e-15 3.57929e-14 -2.12731e-14 44.06 2.95774 4.83997 -7.1391 -3.13634 11.9091 -0.0970648 18.564 2.59975 5.11797e-10 2.28314e-11 -6.12216e-10 8.66943e-10 5.6077e-11 -1.06901e-09 5.11806e-10 2.28313e-11 -6.12218e-10 7.73091 5.47488 0.417314 5.11799e-10 2.2834e-11 -6.12215e-10 2.90554 0.965183 0.102902 5.11804e-10 2.28358e-11 -6.12217e-10 10.2786 0.731801 0.0259123 5.11797e-10 2.28364e-11 -6.12216e-10 2.22167 -0.733487 -0.20892 6.85001e-15 3.5796e-14 -2.14097e-14 -43.4438 11.9581 -7.20617 4.92661 -1.85282 -8.32387 0.000361567 1.0939 -0.153736 7.30261e-11 5.29321e-10 1.00346e-09 1.2931e-10 9.16633e-10 1.73513e-09 7.30199e-11 5.29323e-10 1.00347e-09 -7.73091 5.47488 -0.417314 7.3026e-11 5.29321e-10 1.00346e-09 -2.90554 0.965183 -0.102902 7.3018e-11 5.29321e-10 1.00346e-09 -10.2786 0.731801 -0.0259123 7.30303e-11 5.29321e-10 1.00345e-09 -2.22167 -0.733487 0.20892 -2.03217e-16 0.0 -3.88251e-19 -1.65112 -10.0252 -1.28685 -0.0342451 10.0121 0.123833 -0.691284 -3.09622 -1.67172 2.03217e-16 0.0 3.88251e-19 1.39441 -11.679 5.01998 -0.0138676 13.3142 -0.180508 0.79477 -4.17027 2.65248
4.0658 83.0371 -73.5778 -1.4797 -1.9193 6.5441 0.606621 0.115192 -1.6004 1.0153 4.16847 -0.545811 -1.56994 1.57206 0.854417 -0.809786 9.02101 2.07389 -0.0 0.0 0.0 -0.0 0.0 0.0 3.28796e-15 4.92013e-14 -3.03492e-14 64.087 4.29689 7.07042 -9.98111 -4.46259 17.3987 -0.77066 27.0365 4.03496 6.65427e-10 2.70088e-11 -8.49742e-10 1.12567e-09 6.98548e-11 -1.48402e-09 6.65438e-10 2.70086e-11 -8.49745e-10 7.73091 5.47488 0.417314 6.6543e-10 2.70124e-11 -8.4974e-10 2.90554 0.965183 0.102902 6.65434e-10 2.7015e-11 -8.49745e-10 10.2786 0.731801 0.0259123 6.65429e-10 2.70158e-11 -8.49745e-10 2.22167 -0.733487 -0.20892 3.15719e-15 4.92069e-14 -3.04595e-14 -62.3053 17.295 -10.7775 7.00982 -2.67202 -12.1535 0.00243629 1.58183 -0.222356 6.05585e-11 7.46696e-10 1.41573e-09 1.09093e-10 1.29303e-09 2.448e-09 6.0553e-11 7.46698e-10 1.41574e-09 -7.73091 5.47488 -0.417314 6.05588e-11 7.46696e-10 1.41573e-09 -2.90554 0.965183 -0.102902 6.05522e-11 7.46696e-10 1.41573e-09 -10.2786 0.731801 -0.0259123 6.05609e-11 7.46695e-10 1.41572e-09 -2.22167 -0.733487 0.20892 -2.03217e-16 0.0 -3.88251e-19 -2.41396 -13.7342 -1.89578 -0.0748253 15.5508 0.221059 -0.931679 -6.34284 -2.51814 2.03217e-16 0.0 3.88251e-19 2.97589 -14.4753 7.35191 -0.00308198 17.4235 -0.256705 1.09458 -6.58611 3.92324
4.06282 83.0376 -73.5479 -1.5079 -1.8735 6.5524 0.965895 0.129587 -1.95614 1.30479 5.08534 -0.658973 -1.92274 1.91658 1.04148 -1.06546 11.0074 2.54298 -0.0 0.0 0.0 -0.0 0.0 0.0 -2.90839e-15 4.7704e-14 -3.41413e-14 77.9828 5.2223 8.63747 -11.8152 -5.31984 21.2528 -1.54148 32.9023 5.217 6.8686e-10 7.53791e-12 -8.59427e-10 1.16231e-09 3.69294e-11 -1.50206e-09 6.86873e-10 7.53752e-12 -8.5943e-10 7.73091 5.47488 0.417314 6.86865e-10 7.54149e-12 -8.59424e-10 2.90554 0.965183 0.102902 6.86868e-10 7.54457e-12 -8.5943e-10 10.2786 0.731801 0.0259123 6.86863e-10 7.54547e-12 -8.5943e-10 2.22167 -0.733487 -0.20892 -3.05539e-15 4.7711e-14 -3.42407e-14 -75.0091 20.9532 -13.4635 8.41139 -3.23039 -14.8541 0.00430491 1.87309 -0.26334 9.34876e-11 8.06954e-10 1.52903e-09 1.66335e-10 1.39724e-09 2.64387e-09 9.34829e-11 8.06956e-10 1.52904e-09 -7.73091 5.47488 -0.417314 9.34885e-11 8.06955e-10 1.52903e-09 -2.90554 0.965183 -0.102902 9.34826e-11 8.06955e-10 1.52903e-09 -10.2786 0.731801 -0.0259123 9.34888e-11 8.06953e-10 1.52902e-09 -2.22167 -0.733487 0.20892 -2.03217e-16 0.0 -3.88251e-19 -2.98865 -16.3075 -2.33378 -0.114857 19.4007 0.292972 -1.16119 -8.60201 -3.13785 2.03217e-16 0.0 3.88251e-19 4.22066 -16.3952 9.01572 0.0112379 20.2853 -0.312208 1.36953 -8.26638 4.82802
4.064 83.0378 -73.5205 -1.5245 -1.8248 6.5643 1.12309 0.113033 -2.11795 1.41471 5.44958 -0.709802 -2.06537 2.05059 1.11509 -1.15755 11.8119 2.72975 -0.0 0.0 0.0 -0.0 0.0 0.0 -1.54229e-14 1.48654e-14 -2.95106e-14 83.4053 5.58421 9.26555 -12.511 -5.64373 22.7872 -1.92067 35.1604 5.73008 4.61723e-10 -5.75255e-11 -4.43625e-10 7.84665e-10 -8.56052e-11 -7.78967e-10 4.61738e-10 -5.75263e-11 -4.43626e-10 7.73091 5.47488 0.417314 4.6173e-10 -5.75234e-11 -4.43619e-10 2.90554 0.965183 0.102902 4.61732e-10 -5.75204e-11 -4.43626e-10 10.2786 0.731801 0.0259123 4.61726e-10 -5.75196e-11 -4.43625e-10 2.22167 -0.733487 -0.20892 -1.5545e-14 1.4872e-14 -2.96209e-14 -79.8401 22.446 -14.6106 8.97587 -3.45991 -15.9694 0.00458393 1.88509 -0.265033 2.41098e-10 5.90903e-10 1.12731e-09 4.20076e-10 1.02271e-09 1.94917e-09 2.41094e-10 5.90904e-10 1.12732e-09 -7.73091 5.47488 -0.417314 2.411e-10 5.90904e-10 1.12731e-09 -2.90554 0.965183 -0.102902 2.41094e-10 5.90903e-10 1.12731e-09 -10.2786 0.731801 -0.0259123 2.41099e-10 5.90902e-10 1.1273e-09 -2.22167 -0.733487 0.20892 -2.03217e-16 0.0 -3.88251e-19 -3.21226 -17.2932 -2.50535 -0.133155 20.8843 0.32213 -1.27443 -9.48314 -3.42338 2.03217e-16 0.0 3.88251e-19 4.74289 -17.1398 9.66578 0.0182538 21.4004 -0.333835 1.4961 -8.92652 5.20334
4.06498 83.0379 -73.495 -1.5429 -1.7764 6.5775 1.13574 0.074442 -2.14112 1.39452 5.41909 -0.715828 -2.05679 2.03432 1.10755 -1.11588 11.773 2.71018 -0.0 0.0 0.0 -0.0 0.0 0.0 -3.23192e-14 -3.98612e-14 -1.89125e-14 82.8013 5.54948 9.21952 -12.4552 -5.62266 22.6574 -1.86909 34.8547 5.65948 6.33943e-11 -1.5456e-10 2.71026e-10 1.16017e-10 -2.70993e-10 4.64669e-10 6.34106e-11 -1.54562e-10 2.71026e-10 7.73091 5.47488 0.417314 6.34029e-11 -1.54561e-10 2.71035e-10 2.90554 0.965183 0.102902 6.34041e-11 -1.54558e-10 2.71027e-10 10.2786 0.731801 0.0259123 6.33955e-11 -1.54558e-10 2.71031e-10 2.22167 -0.733487 -0.20892 -3.23874e-14 -3.98563e-14 -1.90492e-14 -79.2382 22.4484 -14.5671 8.96964 -3.46516 -15.9501 0.00365338 1.69781 -0.238683 4.6819e-10 1.80171e-10 3.62311e-10 8.0998e-10 3.10875e-10 6.26308e-10 4.68186e-10 1.8017e-10 3.62328e-10 -7.73091 5.47488 -0.417314 4.68193e-10 1.80172e-10 3.62317e-10 -2.90554 0.965183 -0.102902 4.68185e-10 1.80171e-10 3.62314e-10 -10.2786 0.731801 -0.0259123 4.6819e-10 1.8017e-10 3.62303e-10 -2.22167 -0.733487 0.20892 -2.03217e-16 0.0 -3.88251e-19 -3.16433 -17.1462 -2.47865 -0.130693 20.6778 0.318442 -1.27936 -9.38174 -3.46419 2.03217e-16 0.0 3.88251e-19 4.68948 -17.0595 9.57069 0.0170411 21.2679 -0.329871 1.48943 -8.86118 5.1946
